<?xml version="1.0" standalone="no"?>
<!DOCTYPE svg PUBLIC "-//W3C//DTD SVG 20010904//EN"
 "http://www.w3.org/TR/2001/REC-SVG-20010904/DTD/svg10.dtd">
<svg version="1.0" xmlns="http://www.w3.org/2000/svg"
 width="608.000000pt" height="270.000000pt" viewBox="0 0 608.000000 270.000000"
 preserveAspectRatio="xMidYMid meet">

<g transform="translate(0.000000,270.000000) scale(0.100000,-0.100000)"
fill="#DBDBDA" stroke="none">
<path d="M3382 2190 c-97 -26 -163 -63 -239 -134 -72 -67 -122 -143 -154 -236
-30 -89 -31 -246 0 -341 86 -270 373 -436 653 -378 194 40 372 211 423 404 12
47 15 121 15 347 l0 288 -29 32 c-25 29 -35 32 -95 36 l-66 4 0 -61 c0 -33 -4
-61 -9 -61 -6 0 -31 14 -56 31 -117 79 -302 108 -443 69z m302 -219 c225 -111
270 -418 86 -584 -83 -75 -129 -92 -245 -92 -121 0 -167 18 -249 95 -79 75
-111 150 -111 260 1 70 5 95 27 141 66 143 194 222 350 216 62 -3 89 -10 142
-36z"/>
<path d="M5410 2148 c0 -102 20 -688 26 -745 l5 -53 50 0 c49 0 49 0 49 33 0
17 7 185 15 372 8 187 15 353 15 368 0 18 -10 39 -29 58 -25 24 -37 29 -80 29
l-51 0 0 -62z"/>
<path d="M4617 2189 c-56 -13 -140 -55 -198 -99 -212 -159 -280 -460 -159
-700 43 -85 145 -190 228 -233 97 -51 162 -67 267 -67 167 0 285 49 400 165
219 220 219 560 0 781 -73 74 -147 119 -244 148 -60 18 -228 21 -294 5z m275
-208 c79 -30 150 -97 190 -179 30 -60 33 -75 33 -157 0 -76 -4 -99 -26 -145
-107 -229 -389 -287 -574 -119 -32 30 -65 73 -82 107 -25 51 -28 68 -28 157 0
117 17 165 86 240 107 117 254 151 401 96z"/>
<path d="M781 1889 c-46 -18 -82 -52 -111 -102 l-30 -52 0 73 0 72 -75 0 -75
0 0 -385 0 -385 75 0 75 0 0 168 c1 258 22 356 93 430 34 35 95 57 130 47 61
-18 57 -22 57 58 0 59 -3 76 -16 81 -23 9 -95 6 -123 -5z"/>
<path d="M1259 1887 c-103 -29 -185 -103 -237 -214 -25 -53 -27 -68 -27 -173
0 -140 21 -202 95 -283 84 -92 201 -136 324 -122 79 8 134 33 190 85 l46 43 0
-57 0 -56 75 0 75 0 0 385 0 385 -75 0 -75 0 0 -53 0 -54 -39 37 c-63 60 -123
84 -221 87 -49 2 -105 -3 -131 -10z m212 -133 c69 -20 148 -97 168 -163 29
-100 6 -217 -57 -285 -67 -71 -207 -98 -297 -57 -132 60 -185 251 -109 391 33
60 75 96 136 115 58 18 94 18 159 -1z"/>
<path d="M2347 1886 c-57 -21 -102 -56 -131 -100 l-26 -40 0 67 0 67 -75 0
-75 0 0 -385 0 -385 74 0 74 0 4 228 c3 226 3 227 31 284 34 70 85 114 155
134 65 19 110 12 152 -23 60 -50 64 -71 68 -360 l3 -263 76 0 75 0 -4 278 c-3
255 -5 281 -25 330 -30 75 -63 113 -124 147 -44 24 -68 29 -134 32 -52 2 -93
-2 -118 -11z"/>
<path d="M5419 1251 c-21 -22 -29 -39 -29 -66 0 -27 8 -44 29 -66 39 -38 87
-39 130 -3 26 21 31 33 31 69 0 89 -97 129 -161 66z"/>
<path d="M3030 963 c1 -49 33 -160 62 -216 174 -327 646 -343 847 -28 39 60
71 159 71 216 l0 45 -95 0 -95 0 0 -47 c0 -107 -95 -233 -202 -269 -65 -21
-167 -15 -223 14 -90 46 -157 144 -171 250 l-7 52 -93 0 c-83 0 -94 -2 -94
-17z"/>
</g>
</svg>
