<svg version="1.1" id="Layer_1" xmlns="http://www.w3.org/2000/svg" xmlns:xlink="http://www.w3.org/1999/xlink" x="0px" y="0px"
	 width="100%" viewBox="0 0 608 271" enable-background="new 0 0 608 271" xml:space="preserve">
<path fill="#FFFFFF" opacity="1.000000" stroke="none" 
	d="
M375.000000,272.000000 
	C250.035385,272.000000 125.570763,272.000000 1.053073,272.000000 
	C1.053073,181.727753 1.053073,91.455460 1.053073,1.091582 
	C203.547974,1.091582 406.096008,1.091582 608.822021,1.091582 
	C608.822021,91.333054 608.822021,181.666489 608.822021,272.000000 
	C531.122070,272.000000 453.311035,272.000000 375.000000,272.000000 
M378.555054,157.088364 
	C384.515015,152.413391 390.981232,148.248627 396.321930,142.949539 
	C405.407440,133.934952 409.291199,122.138695 409.832977,109.703430 
	C410.520905,93.914253 410.055389,78.072090 409.971985,62.253387 
	C409.938904,55.983288 405.608490,50.837906 399.596802,50.103497 
	C396.208710,49.689590 392.728607,50.028893 388.995850,50.028893 
	C388.995850,54.186279 388.995850,57.769505 388.995850,61.403015 
	C388.365479,61.325588 388.004669,61.377487 387.757263,61.233925 
	C386.774780,60.663830 385.801208,60.070549 384.871765,59.418236 
	C376.930450,53.844692 367.858521,50.765781 358.440308,50.176262 
	C338.471222,48.926338 321.444336,55.551517 308.811188,71.695221 
	C291.496887,93.820900 292.877533,125.419891 312.440643,145.740967 
	C329.325043,163.279510 354.118896,168.324814 378.555054,157.088364 
M533.000000,113.232246 
	C533.000000,109.401016 533.187073,105.558990 532.966614,101.740494 
	C532.156128,87.702271 526.258545,75.624832 516.360596,66.166611 
	C503.935944,54.294033 488.751373,49.200500 471.213013,50.862141 
	C458.251434,52.090176 447.070312,56.809731 437.941101,65.715202 
	C424.693512,78.638084 418.824677,94.361916 420.875732,113.154793 
	C422.630707,129.234756 429.766632,141.988281 442.328217,151.752533 
	C457.371918,163.446198 474.529327,166.124313 492.472260,160.994156 
	C515.873230,154.303482 528.913452,137.932602 533.000000,113.232246 
M182.000000,143.498688 
	C182.000000,123.432739 182.000000,103.366783 182.000000,83.445213 
	C176.128555,83.445213 171.227081,83.445213 166.257477,83.445213 
	C166.056412,86.446892 165.884659,89.010979 165.629639,92.818146 
	C157.558090,84.592155 148.869614,80.809639 138.297379,80.884605 
	C127.589828,80.960548 118.420128,84.133972 110.837624,91.677406 
	C98.153122,104.296532 93.639030,128.090561 106.097221,145.373474 
	C122.557541,168.208405 143.592545,167.838455 165.746506,152.080673 
	C165.948761,155.294815 166.111938,157.887970 166.286957,160.669281 
	C171.602417,160.669281 176.497833,160.669281 182.000000,160.669281 
	C182.000000,155.065201 182.000000,149.781616 182.000000,143.498688 
M223.800934,109.460663 
	C224.522949,108.154335 225.167969,106.797913 225.979813,105.550018 
	C230.400238,98.755486 237.139008,95.706055 244.799835,95.117416 
	C253.286743,94.465294 259.917145,102.624153 259.979401,113.183411 
	C260.061890,127.174461 259.991425,141.166382 260.010590,155.157898 
	C260.013031,156.931808 260.159760,158.705505 260.247986,160.664398 
	C265.617371,160.664398 270.510315,160.664398 275.380402,160.664398 
	C275.635468,159.897308 275.920319,159.439011 275.921356,158.980057 
	C275.959381,142.157501 276.735016,125.288994 275.728333,108.527756 
	C275.010101,96.569611 269.613800,86.139000 256.808258,82.527725 
	C243.343582,78.730576 230.933441,80.397446 221.191605,92.837151 
	C221.033218,89.260681 220.905914,86.385971 220.770798,83.335091 
	C215.383713,83.335091 210.490631,83.335091 205.472717,83.335091 
	C205.472717,109.341995 205.472717,135.011154 205.472717,160.552399 
	C210.853363,160.552399 215.749619,160.552399 221.000015,160.552399 
	C221.000015,147.134888 220.824341,134.157532 221.111282,121.190414 
	C221.193176,117.489555 222.617416,113.818390 223.800934,109.460663 
M323.977051,174.659912 
	C323.490997,174.123428 323.012970,173.128784 322.517670,173.120102 
	C316.415405,173.013260 310.310638,173.050461 303.905121,173.050461 
	C304.275940,192.986542 312.483307,207.921265 329.517761,216.959198 
	C349.920898,227.784424 369.739532,224.810760 386.955597,210.149841 
	C397.843781,200.877609 403.038391,187.990982 402.921295,173.218002 
	C396.025482,173.218002 389.750916,173.218002 383.490784,173.218002 
	C382.325409,197.455246 364.954437,207.906845 349.331512,205.965225 
	C334.935547,204.176086 323.213135,189.666107 323.977051,174.659912 
M50.000000,144.498230 
	C50.000000,149.900879 50.000000,155.303528 50.000000,160.561493 
	C55.843708,160.561493 60.735538,160.561493 66.000000,160.561493 
	C66.000000,149.336472 65.668007,138.531021 66.129982,127.759628 
	C66.388924,121.722038 67.349129,115.554626 69.101662,109.782188 
	C71.208794,102.841805 75.698059,97.319016 83.531914,96.431763 
	C86.759529,96.066208 90.156487,97.195778 93.999931,97.716179 
	C93.999931,93.838646 93.689590,90.342171 94.078308,86.925240 
	C94.566711,82.632080 92.362656,81.326546 88.739365,81.019562 
	C80.668602,80.335785 74.060387,83.005905 69.230675,89.618813 
	C68.597534,90.485718 68.339600,91.626656 67.907883,92.640678 
	C67.391891,92.257027 66.875900,91.873383 66.359917,91.489738 
	C66.104019,88.797043 65.848129,86.104355 65.588287,83.370117 
	C60.299564,83.370117 55.411934,83.370117 50.000000,83.370117 
	C50.000000,103.656593 50.000000,123.577629 50.000000,144.498230 
M555.604187,133.883331 
	C556.069031,124.642776 556.692139,115.406860 556.963318,106.160622 
	C557.425354,90.405045 557.692078,74.643448 557.981689,58.883297 
	C558.053284,54.988098 554.641663,50.590118 550.845215,50.122101 
	C547.651794,49.728409 544.371277,50.041130 541.000000,50.041130 
	C541.000000,52.623371 540.929199,54.454689 541.011292,56.279114 
	C541.657776,70.639442 542.412476,84.995346 542.975586,99.358818 
	C543.449585,111.447472 543.704895,123.544647 544.091492,135.636948 
	C544.105225,136.065735 544.486816,136.482758 544.740051,136.992035 
	C547.456238,136.992035 550.140015,137.179016 552.769897,136.884354 
	C553.619385,136.789169 554.327026,135.428482 555.604187,133.883331 
M540.000000,151.663422 
	C540.000000,152.159760 539.989014,152.656387 540.001648,153.152405 
	C540.152771,159.063568 543.750793,162.906540 549.217102,162.999573 
	C554.828674,163.095062 559.483948,159.184937 559.994629,153.947113 
	C560.502258,148.740112 556.988892,143.715042 552.352173,143.016373 
	C545.875610,142.040482 541.214355,144.983521 540.000000,151.663422 
z"/>
<path fill="#2975BA" opacity="1.000000" stroke="none" 
	d="
M378.248291,157.322388 
	C354.118896,168.324814 329.325043,163.279510 312.440643,145.740967 
	C292.877533,125.419891 291.496887,93.820900 308.811188,71.695221 
	C321.444336,55.551517 338.471222,48.926338 358.440308,50.176262 
	C367.858521,50.765781 376.930450,53.844692 384.871765,59.418236 
	C385.801208,60.070549 386.774780,60.663830 387.757263,61.233925 
	C388.004669,61.377487 388.365479,61.325588 388.995850,61.403015 
	C388.995850,57.769505 388.995850,54.186279 388.995850,50.028893 
	C392.728607,50.028893 396.208710,49.689590 399.596802,50.103497 
	C405.608490,50.837906 409.938904,55.983288 409.971985,62.253387 
	C410.055389,78.072090 410.520905,93.914253 409.832977,109.703430 
	C409.291199,122.138695 405.407440,133.934952 396.321930,142.949539 
	C390.981232,148.248627 384.515015,152.413391 378.248291,157.322388 
M318.000000,102.781616 
	C317.440948,109.771843 317.995392,116.672035 321.458344,122.862961 
	C334.917816,146.925186 366.455353,148.633652 381.922363,127.631424 
	C389.890564,116.811668 391.329620,105.114769 386.324066,92.944351 
	C381.154510,80.375160 371.296234,72.779541 357.855194,71.126587 
	C338.112701,68.698685 320.713501,82.295448 318.000000,102.781616 
z"/>
<path fill="#2975BA" opacity="1.000000" stroke="none" 
	d="
M532.999512,113.698593 
	C528.913452,137.932602 515.873230,154.303482 492.472260,160.994156 
	C474.529327,166.124313 457.371918,163.446198 442.328217,151.752533 
	C429.766632,141.988281 422.630707,129.234756 420.875732,113.154793 
	C418.824677,94.361916 424.693512,78.638084 437.941101,65.715202 
	C447.070312,56.809731 458.251434,52.090176 471.213013,50.862141 
	C488.751373,49.200500 503.935944,54.294033 516.360596,66.166611 
	C526.258545,75.624832 532.156128,87.702271 532.966614,101.740494 
	C533.187073,105.558990 533.000000,109.401016 532.999512,113.698593 
M491.863892,74.377426 
	C484.862976,72.270782 478.142944,70.039772 470.383301,71.810493 
	C456.684845,74.936447 447.639984,82.836273 443.043030,95.778366 
	C438.269684,109.216858 441.602448,121.261696 451.084869,131.485031 
	C462.953674,144.281265 482.033386,146.451492 496.548401,136.713242 
	C507.346405,129.468781 513.228577,118.707314 512.709473,106.022858 
	C512.146729,92.272079 505.425476,81.217842 491.863892,74.377426 
z"/>
<path fill="#DBDCDC" opacity="1.000000" stroke="none" 
	d="
M182.000000,143.998352 
	C182.000000,149.781616 182.000000,155.065201 182.000000,160.669281 
	C176.497833,160.669281 171.602417,160.669281 166.286957,160.669281 
	C166.111938,157.887970 165.948761,155.294815 165.746506,152.080673 
	C143.592545,167.838455 122.557541,168.208405 106.097221,145.373474 
	C93.639030,128.090561 98.153122,104.296532 110.837624,91.677406 
	C118.420128,84.133972 127.589828,80.960548 138.297379,80.884605 
	C148.869614,80.809639 157.558090,84.592155 165.629639,92.818146 
	C165.884659,89.010979 166.056412,86.446892 166.257477,83.445213 
	C171.227081,83.445213 176.128555,83.445213 182.000000,83.445213 
	C182.000000,103.366783 182.000000,123.432739 182.000000,143.998352 
M130.719345,96.949844 
	C118.584915,102.691895 112.849937,114.728455 116.200584,128.890335 
	C118.460594,138.442459 124.098251,145.380127 134.165787,147.506912 
	C143.340256,149.445038 151.864304,147.685699 158.543564,140.833481 
	C167.083054,132.072891 168.456284,117.614861 161.983215,107.076500 
	C156.632217,98.364922 143.648041,91.819962 130.719345,96.949844 
z"/>
<path fill="#DBDCDC" opacity="1.000000" stroke="none" 
	d="
M223.613525,109.797134 
	C222.617416,113.818390 221.193176,117.489555 221.111282,121.190414 
	C220.824341,134.157532 221.000015,147.134888 221.000015,160.552399 
	C215.749619,160.552399 210.853363,160.552399 205.472717,160.552399 
	C205.472717,135.011154 205.472717,109.341995 205.472717,83.335091 
	C210.490631,83.335091 215.383713,83.335091 220.770798,83.335091 
	C220.905914,86.385971 221.033218,89.260681 221.191605,92.837151 
	C230.933441,80.397446 243.343582,78.730576 256.808258,82.527725 
	C269.613800,86.139000 275.010101,96.569611 275.728333,108.527756 
	C276.735016,125.288994 275.959381,142.157501 275.921356,158.980057 
	C275.920319,159.439011 275.635468,159.897308 275.380402,160.664398 
	C270.510315,160.664398 265.617371,160.664398 260.247986,160.664398 
	C260.159760,158.705505 260.013031,156.931808 260.010590,155.157898 
	C259.991425,141.166382 260.061890,127.174461 259.979401,113.183411 
	C259.917145,102.624153 253.286743,94.465294 244.799835,95.117416 
	C237.139008,95.706055 230.400238,98.755486 225.979813,105.550018 
	C225.167969,106.797913 224.522949,108.154335 223.613525,109.797134 
z"/>
<path fill="#2975BA" opacity="1.000000" stroke="none" 
	d="
M323.986877,175.120850 
	C323.213135,189.666107 334.935547,204.176086 349.331512,205.965225 
	C364.954437,207.906845 382.325409,197.455246 383.490784,173.218002 
	C389.750916,173.218002 396.025482,173.218002 402.921295,173.218002 
	C403.038391,187.990982 397.843781,200.877609 386.955597,210.149841 
	C369.739532,224.810760 349.920898,227.784424 329.517761,216.959198 
	C312.483307,207.921265 304.275940,192.986542 303.905121,173.050461 
	C310.310638,173.050461 316.415405,173.013260 322.517670,173.120102 
	C323.012970,173.128784 323.490997,174.123428 323.986877,175.120850 
z"/>
<path fill="#DBDCDC" opacity="1.000000" stroke="none" 
	d="
M50.000000,143.998444 
	C50.000000,123.577629 50.000000,103.656593 50.000000,83.370117 
	C55.411934,83.370117 60.299564,83.370117 65.588287,83.370117 
	C65.848129,86.104355 66.104019,88.797043 66.359917,91.489738 
	C66.875900,91.873383 67.391891,92.257027 67.907883,92.640678 
	C68.339600,91.626656 68.597534,90.485718 69.230675,89.618813 
	C74.060387,83.005905 80.668602,80.335785 88.739365,81.019562 
	C92.362656,81.326546 94.566711,82.632080 94.078308,86.925240 
	C93.689590,90.342171 93.999931,93.838646 93.999931,97.716179 
	C90.156487,97.195778 86.759529,96.066208 83.531914,96.431763 
	C75.698059,97.319016 71.208794,102.841805 69.101662,109.782188 
	C67.349129,115.554626 66.388924,121.722038 66.129982,127.759628 
	C65.668007,138.531021 66.000000,149.336472 66.000000,160.561493 
	C60.735538,160.561493 55.843708,160.561493 50.000000,160.561493 
	C50.000000,155.303528 50.000000,149.900879 50.000000,143.998444 
z"/>
<path fill="#2975BA" opacity="1.000000" stroke="none" 
	d="
M555.351868,134.265015 
	C554.327026,135.428482 553.619385,136.789169 552.769897,136.884354 
	C550.140015,137.179016 547.456238,136.992035 544.740051,136.992035 
	C544.486816,136.482758 544.105225,136.065735 544.091492,135.636948 
	C543.704895,123.544647 543.449585,111.447472 542.975586,99.358818 
	C542.412476,84.995346 541.657776,70.639442 541.011292,56.279114 
	C540.929199,54.454689 541.000000,52.623371 541.000000,50.041130 
	C544.371277,50.041130 547.651794,49.728409 550.845215,50.122101 
	C554.641663,50.590118 558.053284,54.988098 557.981689,58.883297 
	C557.692078,74.643448 557.425354,90.405045 556.963318,106.160622 
	C556.692139,115.406860 556.069031,124.642776 555.351868,134.265015 
z"/>
<path fill="#2975BA" opacity="1.000000" stroke="none" 
	d="
M540.000305,151.239212 
	C541.214355,144.983521 545.875610,142.040482 552.352173,143.016373 
	C556.988892,143.715042 560.502258,148.740112 559.994629,153.947113 
	C559.483948,159.184937 554.828674,163.095062 549.217102,162.999573 
	C543.750793,162.906540 540.152771,159.063568 540.001648,153.152405 
	C539.989014,152.656387 540.000000,152.159760 540.000305,151.239212 
z"/>
<path fill="#FFFFFF" opacity="1.000000" stroke="none" 
	d="
M318.000427,102.322243 
	C320.713501,82.295448 338.112701,68.698685 357.855194,71.126587 
	C371.296234,72.779541 381.154510,80.375160 386.324066,92.944351 
	C391.329620,105.114769 389.890564,116.811668 381.922363,127.631424 
	C366.455353,148.633652 334.917816,146.925186 321.458344,122.862961 
	C317.995392,116.672035 317.440948,109.771843 318.000427,102.322243 
z"/>
<path fill="#FFFFFF" opacity="1.000000" stroke="none" 
	d="
M492.158936,74.630463 
	C505.425476,81.217842 512.146729,92.272079 512.709473,106.022858 
	C513.228577,118.707314 507.346405,129.468781 496.548401,136.713242 
	C482.033386,146.451492 462.953674,144.281265 451.084869,131.485031 
	C441.602448,121.261696 438.269684,109.216858 443.043030,95.778366 
	C447.639984,82.836273 456.684845,74.936447 470.383301,71.810493 
	C478.142944,70.039772 484.862976,72.270782 492.158936,74.630463 
z"/>
<path fill="#FFFFFF" opacity="1.000000" stroke="none" 
	d="
M131.101776,96.848747 
	C143.648041,91.819962 156.632217,98.364922 161.983215,107.076500 
	C168.456284,117.614861 167.083054,132.072891 158.543564,140.833481 
	C151.864304,147.685699 143.340256,149.445038 134.165787,147.506912 
	C124.098251,145.380127 118.460594,138.442459 116.200584,128.890335 
	C112.849937,114.728455 118.584915,102.691895 131.101776,96.848747 
z"/>
</svg>